<svg width="66" height="58" viewBox="0 0 66 58" fill="none" xmlns="http://www.w3.org/2000/svg">
<path d="M23.8789 18.4224C27.8915 13.2808 34.1468 9.97461 41.1742 9.97461C44.2093 9.97461 47.1004 10.5913 49.729 11.7062" stroke="#4D9F22" stroke-width="2" stroke-miterlimit="10" stroke-linecap="round" stroke-linejoin="round"/>
<path d="M35.0956 44.8826C30.22 42.5954 26.8438 37.6426 26.8438 31.9011C26.8438 23.9864 33.26 17.5703 41.1746 17.5703C41.8923 17.5703 42.5977 17.6231 43.2871 17.7249" stroke="#4D9F22" stroke-width="2" stroke-miterlimit="10" stroke-linecap="round" stroke-linejoin="round"/>
<path d="M25.4606 16.2087L22.9727 13.7207" stroke="#4D9F22" stroke-width="2" stroke-miterlimit="10" stroke-linecap="round" stroke-linejoin="round"/>
<path d="M21.1758 15.0858L24.3358 11.9258" stroke="#4D9F22" stroke-width="2" stroke-miterlimit="10" stroke-linecap="round" stroke-linejoin="round"/>
<path d="M38.8242 5.95898V9.85208" stroke="#4D9F22" stroke-width="2" stroke-miterlimit="10" stroke-linecap="round" stroke-linejoin="round"/>
<path d="M43.2891 9.82822V5.95898" stroke="#4D9F22" stroke-width="2" stroke-miterlimit="10" stroke-linecap="round" stroke-linejoin="round"/>
<path d="M35.9609 1H46.156V5.62978H35.9609V1Z" stroke="#4D9F22" stroke-width="2" stroke-miterlimit="10" stroke-linecap="round" stroke-linejoin="round"/>
<path d="M22.7564 22.5527H1" stroke="#4D9F22" stroke-width="2" stroke-miterlimit="10" stroke-linecap="round" stroke-linejoin="round"/>
<path d="M19.8202 29.7168H7.1875" stroke="#4D9F22" stroke-width="2" stroke-miterlimit="10" stroke-linecap="round" stroke-linejoin="round"/>
<path d="M37.7898 53.5654C28.9296 52.192 21.8228 45.5137 19.8177 36.8789H12.3164" stroke="#4D9F22" stroke-width="2" stroke-miterlimit="10" stroke-linecap="round" stroke-linejoin="round"/>
<path d="M57.8398 10.2871L37.3008 36.9199H48.4896L43.7559 57.0004L64.8425 29.6042H53.2234L57.8398 10.2871Z" stroke="#4D9F22" stroke-width="2" stroke-miterlimit="10" stroke-linecap="round" stroke-linejoin="round"/>
</svg>
